<?xml version="1.0" standalone="no"?>
<!DOCTYPE svg PUBLIC "-//W3C//DTD SVG 20010904//EN"
 "http://www.w3.org/TR/2001/REC-SVG-20010904/DTD/svg10.dtd">
<svg version="1.0" xmlns="http://www.w3.org/2000/svg"
 width="302.000000pt" height="385.000000pt" viewBox="0 0 302.000000 385.000000"
 preserveAspectRatio="xMidYMid meet">
<metadata>
Created by potrace 1.15, written by Peter Selinger 2001-2017
</metadata>
<g transform="translate(0.000000,385.000000) scale(0.100000,-0.100000)"
fill="#000000" stroke="none">
<path d="M1107 3799 c-278 -165 -447 -506 -408 -824 7 -60 62 -264 171 -636
88 -301 160 -553 160 -561 0 -27 -164 -421 -186 -448 -67 -78 -195 -72 -256
12 l-23 33 -5 720 c-5 655 -7 723 -22 758 -62 136 -197 202 -333 163 -45 -14
-69 -29 -110 -70 -81 -80 -85 -102 -85 -439 l0 -279 38 6 c61 11 139 54 176
98 45 52 66 115 66 197 0 79 -22 132 -79 194 -36 39 -40 48 -32 70 31 81 150
90 193 14 10 -17 14 -189 18 -737 l5 -715 26 -56 c58 -123 169 -199 294 -202
l67 -2 -5 -58 c-9 -98 -91 -202 -179 -229 l-38 -11 0 -247 0 -248 43 -6 c56
-9 139 -57 172 -100 31 -41 65 -125 65 -161 l0 -25 265 0 265 0 0 29 c0 33
-33 85 -73 115 -24 18 -47 22 -156 26 l-127 5 -78 85 c-85 93 -101 118 -111
172 -8 42 18 110 56 145 l25 22 203 -121 c186 -112 208 -122 260 -125 67 -4
122 22 158 76 49 73 40 155 -27 243 -53 69 -115 196 -137 278 -24 88 -24 272
0 360 25 96 99 237 157 303 92 103 211 181 340 223 48 15 109 18 490 23 426 6
436 7 485 29 63 29 109 73 143 137 l27 50 3 318 3 318 -31 -16 c-43 -22 -108
-83 -126 -116 -10 -20 -14 -63 -14 -149 l0 -120 -288 0 -288 0 -12 74 c-21
135 -89 247 -193 318 -34 24 -130 65 -259 113 -250 92 -280 112 -299 197 -14
61 -4 64 103 24 130 -49 148 -52 201 -32 43 17 95 65 95 89 0 7 -44 27 -98 46
-138 49 -184 99 -168 186 10 49 50 93 98 106 37 10 51 7 143 -25 56 -20 107
-36 113 -36 17 0 15 73 -2 113 -29 67 -53 79 -431 213 -198 69 -364 128 -370
130 -5 2 -41 -15 -78 -37z"/>
<path d="M2487 3560 c-30 -35 -42 -85 -34 -136 5 -31 61 -117 143 -220 l25
-32 -198 -153 c-109 -84 -208 -161 -220 -172 l-22 -20 38 -31 c81 -65 142
-155 181 -264 l26 -74 202 156 c110 86 210 170 222 186 56 78 70 186 36 274
-14 37 -298 432 -366 509 -4 5 -19 -6 -33 -23z"/>
<path d="M2080 1444 c-90 -16 -227 -51 -300 -76 -113 -39 -356 -146 -370 -163
-8 -10 8 -43 66 -139 76 -124 78 -126 113 -126 79 0 183 -75 217 -156 19 -44
18 -146 -1 -191 l-15 -37 58 -95 c32 -53 108 -176 168 -273 l109 -178 293 0
292 0 0 29 c0 33 -33 85 -73 115 -24 18 -47 22 -155 26 l-126 5 -142 230 -142
229 86 91 c195 206 302 389 302 516 0 87 -36 141 -115 175 -39 17 -208 28
-265 18z"/>
</g>
</svg>
